<?xml version="1.0" encoding="UTF-8" standalone="no"?>
<!-- Created with Inkscape (http://www.inkscape.org/) -->

<svg
   width="210mm"
   height="297mm"
   viewBox="0 0 210 297"
   version="1.1"
   id="svg1"
   inkscape:version="1.4.3 (0d15f75, 2025-12-25)"
   sodipodi:docname="brithday.svg"
   xml:space="preserve"
   xmlns:inkscape="http://www.inkscape.org/namespaces/inkscape"
   xmlns:sodipodi="http://sodipodi.sourceforge.net/DTD/sodipodi-0.dtd"
   xmlns:xlink="http://www.w3.org/1999/xlink"
   xmlns="http://www.w3.org/2000/svg"
   xmlns:svg="http://www.w3.org/2000/svg"><sodipodi:namedview
     id="namedview1"
     pagecolor="#ffffff"
     bordercolor="#000000"
     borderopacity="0.25"
     inkscape:showpageshadow="2"
     inkscape:pageopacity="0.0"
     inkscape:pagecheckerboard="0"
     inkscape:deskcolor="#d1d1d1"
     inkscape:document-units="mm"
     showguides="true"
     inkscape:zoom="0.39"
     inkscape:cx="115.38462"
     inkscape:cy="657.69231"
     inkscape:window-width="1366"
     inkscape:window-height="697"
     inkscape:window-x="-8"
     inkscape:window-y="-8"
     inkscape:window-maximized="1"
     inkscape:current-layer="layer1" /><defs
     id="defs1"><linearGradient
       id="linearGradient76"
       inkscape:collect="always"><stop
         style="stop-color:#c00925;stop-opacity:0.95431501;"
         offset="0"
         id="stop76" /><stop
         style="stop-color:#c00925;stop-opacity:0;"
         offset="1"
         id="stop77" /></linearGradient><inkscape:perspective
       sodipodi:type="inkscape:persp3d"
       inkscape:vp_x="10.074005 : 112.04169 : 1"
       inkscape:vp_y="0 : 1000 : 0"
       inkscape:vp_z="182.17656 : 154.25657 : 1"
       inkscape:persp3d-origin="105 : 99 : 1"
       id="perspective61" /><rect
       x="451.46048"
       y="438.76882"
       width="94.280904"
       height="61.645207"
       id="rect59" /><rect
       x="-103.34638"
       y="223.0106"
       width="103.34638"
       height="61.645207"
       id="rect56" /><rect
       x="470.45455"
       y="-47.727273"
       width="756.81818"
       height="459.09091"
       id="rect43" /><linearGradient
       id="linearGradient14"
       inkscape:swatch="gradient"><stop
         style="stop-color:#000000;stop-opacity:1;"
         offset="0"
         id="stop14" /><stop
         style="stop-color:#000000;stop-opacity:0;"
         offset="1"
         id="stop15" /></linearGradient><rect
       x="-184.40454"
       y="537.17844"
       width="136.29901"
       height="68.951263"
       id="rect18" /><rect
       x="583.68046"
       y="817.79405"
       width="49.70905"
       height="229.30304"
       id="rect17" /><rect
       x="190.48819"
       y="306.14173"
       width="411.3016"
       height="106.8497"
       id="rect11" /><rect
       x="165.54331"
       y="433.13386"
       width="868.53541"
       height="74.834646"
       id="rect10" /><rect
       x="149.66929"
       y="288"
       width="72.566929"
       height="71.433071"
       id="rect9" /><rect
       x="-26.07874"
       y="447.87402"
       width="0"
       height="88.440945"
       id="rect7" /><linearGradient
       id="linearGradient6"
       inkscape:collect="always"><stop
         style="stop-color:#000000;stop-opacity:1;"
         offset="0"
         id="stop6" /><stop
         style="stop-color:#000000;stop-opacity:0;"
         offset="1"
         id="stop7" /></linearGradient><rect
       x="102.04724"
       y="181.41732"
       width="603.2126"
       height="79.370079"
       id="rect2" /><linearGradient
       inkscape:collect="always"
       xlink:href="#linearGradient6"
       id="linearGradient7"
       x1="32.634461"
       y1="54.235946"
       x2="154.29295"
       y2="54.235946"
       gradientUnits="userSpaceOnUse" /><symbol
       id="sjjb-food.svg:pizza"
       viewBox="0 0 538.57141 526.29633"><title
         id="title17">Pizza</title><path
         opacity="0.5"
         d="M 522.99698,174.95343 A 269.2857,263.14815 0 1 1 339.09572,8.99637 L 269.2857,263.14814 Z"
         id="path18" /><path
         opacity="0.5"
         d="M 500.29732,184.06599 A 245.49281,247.0222 89.957073 1 1 333.113,29.66709 l -65.54576,236.69346 z"
         id="path19" /><path
         opacity="0.4"
         d="m 223.00633,47.453234 a 20,20 0 0 0 -20.58399,19.992188 20,20 0 0 0 40,0 20,20 0 0 0 -19.41601,-19.992188 z m 87.84179,41.406252 a 24.550266,26.851852 16.084585 0 0 -18.15039,7.89063 24.550266,26.851852 16.084585 0 0 -7.43945,25.800784 24.550266,26.851852 16.084585 0 0 16.70899,18.79101 l 7.43945,-25.80078 7.43945,-25.800784 a 24.550266,26.851852 16.084585 0 0 -5.99805,-0.88086 z M 130.78758,115.40441 a 20,20 0 0 0 -20.58399,19.99024 20,20 0 0 0 40,0 20,20 0 0 0 -19.41601,-19.99024 z m 82.50976,36.4004 a 20,20 0 0 0 -20.58398,19.99218 20,20 0 0 0 40,0 20,20 0 0 0 -19.41602,-19.99218 z m 193.7168,62.82421 -25.32813,8.91602 -25.33007,8.91601 a 24.550266,26.851852 70.607258 0 0 19.72461,15.59766 24.550266,26.851852 70.607258 0 0 25.32812,-8.91601 24.550266,26.851852 70.607258 0 0 5.60547,-24.51368 z m -327.18945,9.97852 a 20,20 0 0 0 -20.583985,19.99219 20,20 0 0 0 39.999995,0 20,20 0 0 0 -19.41601,-19.99219 z m 100.66211,22.73633 a 20,20 0 0 0 -20.58399,19.99023 20,20 0 0 0 40,0 20,20 0 0 0 -19.41601,-19.99023 z m 275.49023,18.51953 a 20,20 0 0 0 -20.58398,19.99219 20,20 0 0 0 40,0 20,20 0 0 0 -19.41602,-19.99219 z m -208.70312,41.25586 a 20,20 0 0 0 -20.58399,19.99023 20,20 0 0 0 40,0 20,20 0 0 0 -19.41601,-19.99023 z m 99.49804,0 a 20,20 0 0 0 -20.58398,19.99023 20,20 0 0 0 40,0 20,20 0 0 0 -19.41602,-19.99023 z M 116.22703,328.9591 a 20,20 0 0 0 -20.583983,19.99219 20.000002,20.000002 0 0 0 40.000003,0 20,20 0 0 0 -19.41602,-19.99219 z m 296.06641,50.96289 a 20,20 0 0 0 -20.58399,19.99219 20,20 0 0 0 40,0 20,20 0 0 0 -19.41601,-19.99219 z M 176.89695,413.8966 a 20,20 0 0 0 -20.58398,19.99219 20,20 0 0 0 40,0 20,20 0 0 0 -19.41602,-19.99219 z m 128.61914,4.85352 a 20,20 0 0 0 -20.58398,19.99219 20,20 0 0 0 40,0 20,20 0 0 0 -19.41602,-19.99219 z"
         id="path20" /></symbol><symbol
       id="sjjb-food.svg:ice_cream"
       viewBox="0 0 438.79325 515.78388"><title
         id="title14">Ice cream</title><path
         opacity="0.1"
         d="M 147.23819,136.99589 13.99317,501.79029 319.92756,271.37749 Z"
         id="path15" /><path
         opacity="0.25"
         d="m 235.1981,1.0439291 c -3.27758,-0.02684 -6.58744,0.11255 -9.91797,0.425781 -53.28845,5.011695 -92.76365,52.6822509 -87.75195,105.9707099 5.01169,53.28843 52.68421,92.76169 105.97266,87.75 53.28843,-5.0117 92.76169,-52.68031 87.75,-105.96875 C 326.55238,39.263745 284.36188,1.4464661 235.1981,1.0439321 Z"
         id="path16" /><path
         d="m 235.22935,0.00291307 c -3.31912,-0.0255 -6.67011,0.116198 -10.04492,0.433594 C 171.18744,5.5148391 131.4186,53.541093 136.49693,107.53807 c 0.57091,6.07038 1.68706,11.95977 3.29101,17.62696 a 13.995605,13.995605 0 0 0 -5.69531,7.02929 L 0.84849,496.98925 a 13.995605,13.995605 0 0 0 21.564454,15.98047 L 328.34654,282.55566 a 13.995605,13.995605 0 0 0 5.16797,-7.86914 c 5.60255,0.46452 11.31744,0.44615 17.09961,-0.0977 53.28844,-5.0117 92.76169,-52.68031 87.75,-105.96875 -4.69847,-49.95792 -46.88896,-87.775192 -96.05274,-88.177732 -3.27758,-0.0268 -6.58549,0.11255 -9.91601,0.42578 -0.40914,0.0385 -0.81516,0.0874 -1.22266,0.13086 C 322.88023,34.478243 282.31403,0.36465107 235.22935,0.00287707 Z m -0.0781,11.59374993 c 41.57753,0.297735 77.22658,30.246021 84.58593,71.312508 -45.97736,10.55956 -78.63164,53.538169 -75.28711,101.562499 -0.64405,0.0749 -1.29061,0.14601 -1.93945,0.20703 -3.62349,0.34078 -7.21408,0.45141 -10.75976,0.34961 l -75.91797,-59.07617 a 13.995605,13.995605 0 0 0 -4.41602,-2.29297 c -1.66926,-5.50233 -2.81528,-11.25567 -3.375,-17.20703 -4.49149,-47.757239 30.47129,-89.977264 78.22852,-94.468757 2.98482,-0.280718 5.94716,-0.407727 8.88086,-0.386719 z m -81.35547,148.234377 14.83398,11.54297 c 3.50617,3.15422 7.23396,6.05624 11.15625,8.68164 l 117.1211,91.14063 -253.53516,190.94921 z m 92.15039,36.14258 c 0.008,0.0396 0.0139,0.0795 0.0215,0.11914 l -0.13672,-0.10742 c 0.0383,-0.004 0.077,-0.007 0.11524,-0.0117 z"
         id="path17" /></symbol><symbol
       id="sjjb-food.svg:fastfood2"
       viewBox="0 0 536.62494 451.6875"><title
         id="title9">Fast food 2</title><path
         opacity="0.25"
         d="M 268.6875,0 C 216.87687,0.0076 163.27757,13.893384 118.71875,37.5 74.511801,60.938324 39.070164,93.964174 23.65625,133 15.631836,140.3436 9.759375,148.25066 6.53125,156.71875 2.209235,167.29812 0.0076,180.21463 0,193.59375 c 0,12.43823 1.930421,25.27384 6,37.03125 -1.308079,7.95557 -1.875,15.97102 -1.875,23.78125 0,12.94309 1.577036,25.34478 4.09375,36.03125 2.532012,10.70941 5.927815,19.68844 9.875,25.96875 L 18.375,316.875 c 1.078592,1.8818 2.253769,3.73425 3.53125,5.5625 1.009745,14.6719 3.360783,30.70448 8.5625,41.40625 L 31.5,366 h 0.03125 c 12.552968,25.02179 42.723975,45.83722 83.6875,60.9375 42.23335,15.49805 96.1747,24.75 155,24.75 58.8253,0 112.7979,-9.25195 155.03125,-24.75 40.96352,-15.10028 71.10329,-35.91571 83.65625,-60.9375 h 0.0312 l 1.0625,-2.15625 c 3.09809,-6.32621 5.08483,-14.43442 6.5,-23.09375 1.34633,-8.2998 2.10027,-17.05143 2.40625,-24.96875 3.77889,-6.24971 7.02854,-14.97027 9.46875,-25.3125 2.50907,-10.69412 4.09375,-23.08816 4.09375,-36.03125 0,-7.79493 -0.58222,-15.79378 -1.875,-23.71875 4.08488,-11.78036 6.02325,-24.65618 6.03125,-37.125 -0.008,-13.48621 -2.24179,-26.49208 -6.625,-37.125 -2.8686,-7.4048 -7.80401,-14.34226 -14.375,-20.875 C 501.71805,95.005054 466.34317,61.315764 421.5625,37.625 376.42996,13.773597 321.59203,0.0076 268.6875,0 Z"
         id="path10" /><path
         d="M 268.6875,0 C 216.87687,0.0076 163.27757,13.893384 118.71875,37.5 74.511801,60.938324 39.070164,93.964174 23.65625,133 15.631836,140.3436 9.759375,148.25066 6.53125,156.71875 2.209235,167.29812 0.0076,180.21463 0,193.59375 c 0,12.43823 1.930421,25.27384 6,37.03125 -1.308079,7.95557 -1.875,15.97102 -1.875,23.78125 0,12.94309 1.577036,25.34478 4.09375,36.03125 2.532012,10.70941 5.927815,19.68844 9.875,25.96875 L 18.375,316.875 c 1.078592,1.8818 2.253769,3.73425 3.53125,5.5625 1.009745,14.6719 3.360783,30.70448 8.5625,41.40625 L 31.5,366 h 0.03125 c 12.552968,25.02179 42.723975,45.83722 83.6875,60.9375 42.23335,15.49805 96.1747,24.75 155,24.75 58.8253,0 112.7979,-9.25195 155.03125,-24.75 40.96352,-15.10028 71.10329,-35.91571 83.65625,-60.9375 h 0.0312 l 1.0625,-2.15625 c 3.09809,-6.32621 5.08483,-14.43442 6.5,-23.09375 1.34633,-8.2998 2.10027,-17.05143 2.40625,-24.96875 3.77889,-6.24971 7.02854,-14.97027 9.46875,-25.3125 2.50907,-10.69412 4.09375,-23.08816 4.09375,-36.03125 0,-7.79493 -0.58222,-15.79378 -1.875,-23.71875 4.08488,-11.78036 6.02325,-24.65618 6.03125,-37.125 -0.008,-13.48621 -2.24179,-26.49208 -6.625,-37.125 -2.8686,-7.4048 -7.80401,-14.34226 -14.375,-20.875 C 501.71805,95.005054 466.34317,61.315764 421.5625,37.625 376.42996,13.773597 321.59203,0.0076 268.6875,0 Z m 0,7.65625 c 58.90945,-0.0153 120.67493,17.622516 167.40625,47.218754 23.35418,14.77901 42.96349,32.52563 56.65625,52.437496 13.69276,19.92717 21.5,41.96417 21.5,65.59375 -0.008,9.01885 -2.50466,17.04035 -7.125,24.4375 -4.24552,6.82344 -10.39696,13.06636 -18.03125,18.75 -0.82615,-0.54311 -1.55958,-0.70606 -2.15625,-0.84375 -0.71141,-0.13774 -1.30698,-0.15625 -1.78125,-0.15625 -0.58137,0 -0.95543,0.0472 -1.0625,0.0625 h -0.15625 l -0.125,0.0312 c -7.19825,1.30808 -12.40082,3.42697 -17.28125,5.5 -4.90338,2.08069 -9.48387,4.08742 -16.0625,5.625 -5.5842,1.32337 -12.63489,2.50201 -18.96875,5.53125 -3.15927,1.52227 -6.18414,3.56126 -8.59375,6.4375 -1.82061,2.15719 -3.27655,4.77561 -4.15625,7.8125 -17.93062,4.64329 -36.97028,8.2206 -55.75,10.875 -36.45027,5.16347 -71.92384,6.9375 -96.59375,6.9375 -36.54206,0.0153 -96.17308,-6.70228 -147.21875,-20.96875 -0.67317,-1.21628 -1.473,-2.34036 -2.40625,-3.28125 -4.00074,-4.06958 -9.42963,-5.93052 -14.5625,-7.4375 -5.14051,-1.46107 -10.2105,-2.49548 -13.125,-3.75 -4.02367,-1.66762 -9.39547,-5.28848 -15.125,-8.5625 -5.767786,-3.24338 -11.97051,-6.32135 -18.65625,-6.37495 -1.637006,0 -3.292841,0.22088 -4.9375,0.6875 -0.313641,-0.20654 -0.655108,-0.41847 -0.96875,-0.625 -8.345695,-5.66069 -14.970143,-11.7459 -19.4375,-18.15625 -4.475011,-6.42565 -6.8049,-13.08235 -6.8125,-20.25 0.0076,-23.22415 7.791949,-45.20109 21.5,-65.28125 C 65.195388,79.805144 99.09082,54.147424 138.9375,36.125 178.77654,18.079639 224.54175,7.648641 268.6875,7.65625 Z m -213.375,213.5 c 4.107827,-0.0535 9.482043,2.26927 14.875,5.375 5.431205,3.06748 10.82058,6.78097 15.96875,8.96875 2.76915,1.15509 5.89688,1.9162 9.125,2.75 4.82689,1.22393 9.82168,2.58956 13.1875,4.59375 1.68291,0.99445 2.94679,2.10387 3.75,3.3125 0.70376,1.07094 1.17416,2.22969 1.28125,3.84375 h -0.0312 c -4.5515,0.0459 -10.19901,-1.83449 -15.875,-2.5 -5.65304,-0.61962 -11.69088,-0.9375 -17.71875,-0.9375 -2.39432,0 -4.792529,0.0492 -7.15625,0.15625 -6.968771,0.29833 -13.523239,2.2634 -19.75,5.09375 -3.319919,1.52992 -5.973031,3.69779 -8.375,5.28125 -1.246882,0.84145 -2.357605,1.48552 -3.375,1.90625 -0.428377,-1.20863 -0.883472,-2.27915 -1.28125,-3.28125 -0.764958,-1.90475 -1.348963,-3.51941 -1.59375,-5.53125 -0.023,-0.22184 -0.0313,-0.43506 -0.0313,-0.6875 -0.0153,-1.32338 0.451185,-3.22091 1.09375,-5.15625 0.627266,-1.95829 1.408375,-3.90271 1.875,-5.9375 1.10154,-4.87279 2.028022,-6.81335 3.34375,-8.6875 1.262181,-1.8053 3.328511,-3.8116 6.28125,-7.4375 l 0.75,-0.46875 c 1.147438,-0.44368 2.332872,-0.65625 3.65625,-0.65625 z m 428.3125,1.875 c -0.0688,1.65231 -0.19776,3.87033 -0.3125,6.21875 -0.19889,3.77124 -0.3986,7.92682 -0.40625,11.09375 0,0.68081 0.0396,1.32488 0.0625,1.90625 0.0918,2.26428 0.50847,5.07347 0.90625,8.15625 0.40543,3.05983 0.78125,6.30604 0.78125,8.9375 0.0383,2.28723 -0.39616,4.10857 -0.65625,4.4375 -0.51252,0.8644 -1.05845,1.32927 -1.96875,1.75 -0.895,0.39778 -2.18249,0.63265 -3.78125,0.625 -3.60295,0.0229 -8.50204,-1.27819 -13,-2.96875 -4.5209,-1.68291 -8.63954,-3.68101 -11.15625,-4.84375 -5.86723,-2.70795 -11.9134,-6.32018 -19.21875,-7.78125 -1.60641,-0.32128 -3.10712,-0.4139 -4.46875,-0.40625 -1.95829,0.008 -3.63316,0.1888 -4.75,0.25 v -0.0312 c 0.48957,-3.14398 1.57148,-5.35925 3.09375,-7.1875 2.27958,-2.7309 5.80103,-4.63968 10.03125,-6.0625 4.21492,-1.42282 9.00839,-2.31106 13.4375,-3.34375 7.27475,-1.69821 12.46201,-3.98881 17.28125,-6.03125 4.42911,-1.8818 8.54845,-3.55601 14.125,-4.71875 z M 17.40625,245.875 c 0.979147,1.55286 2.023458,3.06189 3.125,4.5 29.802781,43.74033 129.44219,75.84375 247.78125,75.84375 118.30846,0 217.92427,-32.09513 247.75,-75.8125 h 0.0312 c 1.0939,-1.44577 2.1146,-2.94713 3.09375,-4.5 -16.71435,47.95524 -92.46992,86.35911 -190.46875,97.71875 0.16064,-0.49723 0.26725,-1.01938 0.34375,-1.5625 l 0.28125,-2.09375 -1.625,-1.34375 c -4.29907,-3.49585 -9.75239,-4.2194 -15,-4.25 -6.35681,0.008 -12.79404,1.21584 -17.0625,1.8125 -9.01121,1.29279 -18.77769,3.35175 -27.78125,3.34375 -1.61406,0 -3.22838,-0.0734 -4.78125,-0.21875 -10.38049,-0.9256 -20.63207,-3.80684 -31.96875,-5.375 -2.09594,-0.29069 -4.18586,-0.53125 -6.31245,-0.53125 -3.42701,-0.008 -7.02708,0.64945 -10.5,2.53125 -1.33103,0.7267 -2.93818,1.75637 -4.4375,3.15625 -0.74201,0.70376 -1.47414,1.48196 -2.09375,2.46875 -0.34423,0.55842 -0.65315,1.22674 -0.875,1.96875 -97.54749,-11.52028 -172.87745,-49.854 -189.5,-97.65625 z m 493.5625,75.25 c -0.29833,4.72744 -0.75604,9.62526 -1.40625,14.40625 -1.17039,8.62874 -3.00559,16.89173 -5.46875,22.8125 h -0.0625 l -1,2.25 c -10.18925,22.8493 -39.20624,44.07892 -80.4375,59.15625 -41.17771,15.13087 -94.3529,24.28125 -152.375,24.28125 -58.0221,0 -111.18965,-9.15038 -152.375,-24.28125 -41.231259,-15.06969 -70.248262,-36.30695 -80.4375,-59.15625 l -1,-2.25 h -0.0625 c -2.463163,-5.92077 -4.306016,-14.18376 -5.46875,-22.8125 -0.40543,-2.98333 -0.739916,-6.00136 -1,-9 35.99129,42.56229 129.16319,72.875 238.4375,72.875 113.85641,0 210.20672,-32.90391 242.65625,-78.28125 z M 224.8125,341.0625 c 1.58346,0 3.35355,0.16976 5.28125,0.4375 10.66352,1.45342 20.99877,4.38951 32.3125,5.4375 1.81295,0.16064 3.6169,0.21875 5.4375,0.21875 10.09745,-0.0153 20.21567,-2.15872 28.875,-3.375 4.51325,-0.65021 10.58344,-1.75765 15.96875,-1.75 2.92214,-0.0229 5.55001,0.31984 7.53125,1.03125 -0.20654,0.19889 -0.42741,0.41081 -0.6875,0.625 -2.07304,1.72116 -5.86466,3.5142 -9.78125,5.28125 -3.92424,1.8206 -8.00397,3.5912 -11.125,6.40625 -3.90129,3.61825 -7.54191,8.36353 -11.34375,12.59375 -3.77124,4.23787 -7.67764,7.84313 -11.25,9.28125 -1.46872,0.60432 -2.93053,0.86735 -4.4375,0.875 -3.80949,0.0306 -8.19768,-1.85846 -12.34375,-4.75 -4.15372,-2.86859 -8.01471,-6.62897 -10.90625,-9.75 -3.7636,-4.05428 -8.46805,-8.4908 -13.9375,-12.09375 -5.46945,-3.58765 -11.73972,-6.35287 -18.59375,-6.78125 l -0.75,-0.0625 c 0.19124,-0.19124 0.41911,-0.40251 0.65625,-0.59375 0.73436,-0.58137 1.60678,-1.10857 2.21875,-1.4375 2.21838,-1.17804 4.29709,-1.57845 6.875,-1.59375 z"
         id="path11" /></symbol><symbol
       id="sjjb-shopping.svg:confectionery"
       viewBox="0 0 517.68537 204.0986"><title
         id="title17-5">Confectionery</title><path
         d="m 166.34997,7.9880019e-6 c 0,0 -11.49161,-0.048699998002 -21.04688,7.4589900119981 -4.86161,3.81985 -8.47074,9.64324 -10.94921,14.51758 -2.47848,4.87433 -3.8086,8.86523 -3.8086,8.86523 l -0.0117,0.0332 -9.57617,33.19727 -9.85742,9.85742 c -0.0107,-4.05414 -0.28118,-11.6404 -3.18164,-24.20898 -2.08831,-9.0494 -10.270025,-20.76672 -17.908195,-30.51758 -7.63818,-9.75086 -14.78516,-17.38477 -14.78516,-17.38477 L 74.297255,0.82813798 73.141015,1.535168 c 0,0 -11.672292,7.13443 -34.29688,22.64844 -23.03032,15.7922 -29.701172,36.37695 -29.701172,36.37695 l -0.460937,1.42578 5.753906,2.5586 c -0.488811,1.23017 -3.2903,8.22282 -6.65625,18.02148 -3.647555,10.61844 -7.408677,22.795152 -7.755859,30.085942 -0.351725,7.38612 3.251429,14.4247 6.826171,19.66211 3.574742,5.23741 7.248047,8.74218 7.248047,8.74218 l 0.917969,0.87696 1.087891,-0.6543 c 0,0 10.478857,-6.2866 22.160156,-12.89258 5.840649,-3.30299 11.982198,-6.68543 17.246094,-9.39258 5.263895,-2.70714 9.764371,-4.74953 11.824218,-5.29882 5.394956,-1.43866 12.282056,-6.03611 18.070316,-10.27539 5.24872,-3.844142 8.64172,-6.757642 9.38672,-7.390632 l 18.267565,11.197272 c 0.0268,1.29329 0.21395,9.4585 1.26758,19.24218 0.56986,5.29153 1.3809,10.83848 2.56055,15.61914 1.17965,4.78067 2.60803,8.79944 5.01953,11.21094 7.96454,7.96453 17.83452,8.22375 18.49023,8.23242 l 207.92774,21.95508 0.0547,0.002 c 0,0 4.11879,0.16629 9.37304,-0.1621 5.25426,-0.3284 11.65238,-1.10744 16.53321,-3.19922 1.56768,-0.67186 2.96104,-1.96058 4.48632,-3.67188 1.52529,-1.7113 3.13388,-3.86926 4.79493,-6.33008 3.3221,-4.92163 6.85023,-11.05027 10.09375,-17.05078 5.5064,-10.18685 9.4857,-18.5694 10.77539,-21.30664 0.18116,0.49342 0.30819,0.71548 0.53125,1.45899 1.2598,4.19938 5.70173,6.90666 9.63672,8.91601 2.97092,1.51707 5.25763,2.3462 6.45898,2.76172 -0.0219,1.61246 -0.0717,8.98868 1.54492,18.83398 1.8028,10.97914 5.56782,23.98949 14.07813,31.97266 6.45204,6.05241 18.25518,10.69949 29.98437,7.16016 7.67917,-2.31723 14.06227,-8.73029 21.2461,-17.40039 9.32715,-11.25692 15.01515,-16.92248 19.26953,-23.92969 4.25438,-7.00721 6.89501,-15.15856 10.13672,-31.04297 1.06419,-5.21455 -0.35788,-13.40216 -2.39063,-21.41211 -2.03275,-8.00994 -4.67858,-15.541142 -6.85351,-19.166012 -0.75652,-1.26085 -1.85436,-4.35759 -2.86915,-8.0586 -1.01478,-3.701 -2.01856,-8.078 -2.90234,-12.25586 -1.67861,-7.93525 -2.7793,-14.40885 -2.90039,-15.11523 0.009,-0.0319 0.0182,-0.0173 0.0273,-0.0527 0.0688,-0.26714 0.12026,-0.75117 -0.14843,-1.25 -0.2687,-0.49882 -0.77941,-0.76832 -1.08789,-0.84765 -0.61698,-0.15866 -0.79644,-0.0348 -0.99024,0.0137 l -1.49805,0.375 0.15039,0.875 c -0.34924,0.29773 -0.7036,0.60253 -1.41796,1.13867 -1.92743,1.44655 -5.01685,3.61296 -8.86914,6.21289 -7.7046,5.19986 -18.48435,12.15423 -29.42188,18.79883 -10.93753,6.6446 -22.04862,12.98537 -30.35156,16.94141 -4.15147,1.97801 -7.63236,3.354652 -9.85938,3.867182 -1.01649,0.23394 -1.65508,0.21764 -1.92382,0.18164 -0.75176,-31.419822 -15.60352,-66.789062 -15.60352,-66.789062 l -0.0469,-0.11133 -0.0605,-0.10351 c 0,0 -7.90521,-13.29752 -22.02149,-20.01953 -1.08707,-0.51766 -2.49243,-0.79498 -4.59961,-1.15235 -2.10717,-0.35736 -4.82333,-0.71747 -8.07812,-1.08398 -6.50958,-0.73302 -15.16793,-1.48878 -25.24414,-2.24805 C 318.20928,7.717926 292.39329,6.186496 266.92224,4.818486 215.98019,2.082476 166.41834,1.25988e-4 166.41834,1.25988e-4 h -0.0352 -0.0332 z"
         id="path18-2" /></symbol><symbol
       id="sjjb-shopping.svg:music"
       viewBox="0 0 507.77149 480.88791"><title
         id="title54">Music</title><path
         opacity="0.3"
         d="m 0,110.88792 v 10 h 507.77149 v -10 z m 0,60 v 10 h 507.77149 v -10 z m 0,60 v 10 h 507.77149 v -10 z m 0,60 v 10 h 507.77149 v -10 z m 0,60 v 10 h 507.77149 v -10 z m 0,60 v 10 h 507.77149 v -10 z m 0,60 v 10 h 507.77149 v -10 z"
         id="path55" /><path
         d="m 393.3711,0.00314739 c -2.49386,0.03902 -4.91669,0.438478 -7.21485,1.17382801 a 24.774244,24.774244 0 0 0 -4.27734,1.316407 L 169.97657,86.487525 a 24.774244,24.774244 0 0 0 -11.67578,9.27735 c -4.11773,4.632155 -6.30673,10.495635 -6.22852,16.740235 l -0.002,-0.15625 v 215.16602 c -10.45687,-5.31124 -22.23405,-8.39844 -34.71875,-8.39844 -42.376704,0 -77.025398,34.60069 -77.025398,76.98633 0,42.38563 34.639744,77.02343 77.025398,77.02343 37.48833,0 76.65603,-24.83003 83.43359,-69.91992 0.0134,-0.0607 0.0622,-0.2047 0.0742,-0.25976 0.14126,-0.64545 0.17606,-0.93995 0.21484,-1.22657 0.0776,-0.57323 0.114,-0.98326 0.1543,-1.45703 0.0806,-0.94753 0.14937,-2.03727 0.21094,-3.28906 0.12313,-2.50359 0.21334,-5.55996 0.17383,-8.4707 V 127.24144 L 368.98626,60.897685 V 240.09105 c -10.45656,-5.31085 -22.23453,-8.39649 -34.71875,-8.39649 -42.37668,0 -77.02344,34.60068 -77.02344,76.98633 0,42.38564 34.6378,77.02344 77.02344,77.02344 37.48342,0 76.64647,-24.82369 83.43164,-69.90235 0.0144,-0.0652 0.0653,-0.21861 0.0781,-0.27734 0.14125,-0.64544 0.1741,-0.93995 0.21289,-1.22656 0.0776,-0.57324 0.114,-0.98327 0.15429,-1.45703 0.0806,-0.94754 0.14937,-2.03727 0.21094,-3.28907 0.12314,-2.50358 0.21335,-5.55997 0.17383,-8.4707 l 0.002,0.16797 V 24.926985 l -0.002,0.15625 c 0.0849,-6.766277 -2.48937,-13.078338 -7.28125,-17.8554676 -4.79196,-4.777236 -11.10939,-7.33017701 -17.875,-7.22461001 a 12.387122,12.387122 0 0 0 -0.002,0 z"
         id="path56" /></symbol><linearGradient
       inkscape:collect="always"
       xlink:href="#linearGradient76"
       id="linearGradient77"
       x1="122.73495"
       y1="106.93214"
       x2="125.35179"
       y2="106.16211"
       gradientUnits="userSpaceOnUse" /><meshgradient
       inkscape:collect="always"
       id="meshgradient77"
       gradientUnits="userSpaceOnUse"
       x="62.99229"
       y="141.17395"><meshrow
         id="meshrow318"><meshpatch
           id="meshpatch318"><stop
             path="c 14.7575,-21.6469  33.077,0  49.6155,0"
             style="stop-color:#ffffff;stop-opacity:1"
             id="stop318" /><stop
             path="c 0,17.2238  3.33108,46.5051  3.33086,63.7291"
             style="stop-color:#c00925;stop-opacity:1"
             id="stop319" /><stop
             path="c -16.5385,-0.000318829  -33.6167,2.74445  -52.9464,-12.058"
             style="stop-color:#ffffff;stop-opacity:1"
             id="stop320" /><stop
             path="c 0,-17.2238  -11.9087,-34.8604  4e-05,-51.6711"
             style="stop-color:#c00925;stop-opacity:1"
             id="stop321" /></meshpatch></meshrow></meshgradient><symbol
       id="sjjb-shopping.svg:symbol165"
       viewBox="0 0 576.44501 577.45154"><title
         id="title163">Photo</title><path
         d="M 64.571,0.06355556 C 23.236,0.06355556 0,21.434556 0,65.099556 V 515.22256 c 0,40.844 20.895,62.229 62.192,62.229 h 452.024 c 41.307,0 62.229,-20.315 62.229,-62.229 V 65.099556 c 0,-42.601 -20.922,-65.03600044 -63.521,-65.03600044 -0.004,0 -448.495,-0.143 -448.353,0 z"
         id="path164" /><path
         fill="#ffffff"
         d="m 228.60264,95.244775 a 2.550255,2.550255 0 0 0 -2.10352,1.107422 l -25.57421,37.328133 a 2.550255,2.550255 0 0 0 2.10351,3.99218 h 172.62305 a 2.550255,2.550255 0 0 0 2.16406,-3.90039 l -23.3125,-37.328126 a 2.550255,2.550255 0 0 0 -2.16211,-1.199219 z m 38.28711,9.558595 h 46.76953 v 24.14649 h -46.76953 z m 169.15625,6.22852 a 2.550255,2.550255 0 0 0 -2.34766,1.55273 l -9.04882,21.29492 a 2.550255,2.550255 0 0 0 2.34765,3.54688 h 68.21289 a 2.550255,2.550255 0 0 0 2.37696,-3.47266 l -8.26172,-21.29492 a 2.550255,2.550255 0 0 0 -2.37696,-1.62695 z m -332.21484,7.32812 a 2.550255,2.550255 0 0 0 -2.42969,1.77149 l -4.425782,13.82031 a 2.550255,2.550255 0 0 0 2.427732,3.32813 h 45.88672 a 2.550255,2.550255 0 0 0 2.48438,-3.125 l -3.19727,-13.82032 a 2.550255,2.550255 0 0 0 -2.48437,-1.97461 z M 76.546,147.13931 c -24.651533,0 -44.5,19.84847 -44.5,44.5 v 237.8125 c 0,24.65153 19.848467,44.5 44.5,44.5 h 426.5625 c 24.65153,0 44.5,-19.84847 44.5,-44.5 v -237.8125 c 0,-24.65153 -19.84847,-44.5 -44.5,-44.5 z m 260.25,42.96875 c 65.25142,0 118.15625,52.87358 118.15625,118.125 0,65.25142 -52.90483,118.15625 -118.15625,118.15625 -65.25142,0 -118.15625,-52.90483 -118.15625,-118.15625 0,-65.25142 52.90483,-118.125 118.15625,-118.125 z m -0.002,47.55273 a 70.582011,70.582011 0 0 0 -70.58203,70.58204 70.582011,70.582011 0 0 0 70.58203,70.58203 70.582011,70.582011 0 0 0 70.58203,-70.58203 70.582011,70.582011 0 0 0 -70.58203,-70.58204 z"
         id="path165" /></symbol><symbol
       id="sjjb-shopping.svg:symbol123"
       viewBox="0 0 576.44501 577.45154"><title
         id="title121">Gift</title><path
         d="M 64.571,0.06355556 C 23.236,0.06355556 0,21.434556 0,65.099556 V 515.22256 c 0,40.844 20.895,62.229 62.192,62.229 h 452.024 c 41.307,0 62.229,-20.315 62.229,-62.229 V 65.099556 c 0,-42.601 -20.922,-65.03600044 -63.521,-65.03600044 -0.004,0 -448.495,-0.143 -448.353,0 z"
         id="path122" /><path
         d="m 78.315531,83.252587 c -6.384612,0.0552 -11.126987,1.159475 -13.683593,3.445313 -5.387097,3.96281 -13.65016,15.51078 -4.859376,26.29688 36.851165,-4.68964 95.897738,17.90885 137.207028,44.63281 20.94653,1.59282 33.61707,-0.85045 41.38477,-5.01172 C 206.65434,117.2476 116.17232,82.925297 78.315531,83.252587 Z M 505.77256,84.8854 c -37.85679,-0.32729 -128.33882,33.99697 -160.04883,69.36524 7.76769,4.16128 20.43823,6.60258 41.38477,5.00976 41.30929,-26.72395 100.35392,-49.3205 137.20508,-44.63086 8.79079,-10.78609 0.52772,-22.334065 -4.85938,-26.296875 -2.55661,-2.285838 -7.29703,-3.392067 -13.68164,-3.447265 z M 60.266701,86.895165 c -0.04001,-0.03552 -1.059614,1.050085 -2.509765,2.808594 1.717125,-1.806087 2.54578,-2.776619 2.509765,-2.808594 z m -2.509765,2.808594 c -0.20142,0.211855 -0.283683,0.310228 -0.513672,0.548828 -1.950672,2.023711 -3.399626,4.039257 -4.390625,6.041016 1.88233,-2.79659 3.570584,-4.972536 4.904297,-6.589844 z m -4.904297,6.589844 c -8.649447,12.850537 -19.83032,36.434467 -3.605469,55.042977 40.748218,46.73471 189.62856,52.45734 186.45899,50.19336 -7.30868,-15.12278 -7.79963,-30.24638 1.81445,-45.36915 C 208.9519,173.302 32.34653,137.71471 52.852639,96.293603 Z M 523.81944,88.529931 c -0.0361,0.03205 0.79326,1.005151 2.51953,2.820313 -1.45619,-1.766703 -2.47942,-2.855923 -2.51953,-2.820313 z m 2.51953,2.820313 c 1.33228,1.61638 3.01549,3.787452 4.89258,6.576171 -0.99099,-2.001417 -2.43834,-4.015701 -4.38867,-6.039062 -0.22524,-0.233662 -0.30609,-0.329102 -0.50391,-0.537109 z m 4.89258,6.576171 c 20.50957,41.421555 -156.09512,77.010495 -184.66407,59.869145 9.61408,15.12277 9.12314,30.24636 1.81446,45.36914 -3.16956,2.26398 145.70881,-3.46059 186.45703,-50.19531 16.22524,-18.60897 5.04211,-42.19265 -3.60742,-55.042975 z m -240.5918,45.730475 c -22.00093,0 -39.90625,17.90532 -39.90625,39.90625 0,22.00092 17.90532,39.9082 39.90625,39.9082 22.00093,0 39.90625,-17.90728 39.90625,-39.9082 0,-22.00093 -17.90532,-39.90625 -39.90625,-39.90625 z M 85.807719,223.90103 c -11.20273,0 -20.324219,9.11954 -20.324219,20.32226 v 96.64844 53.80664 92.48828 c 0,11.20274 9.121489,20.32422 20.324219,20.32422 H 238.98545 v 0.0899 h 101.89649 v -0.0899 h 145.41601 c 11.20274,0 20.32227,-9.12149 20.32227,-20.32422 v -92.48828 -53.80664 -96.64844 c 0,-11.20272 -9.11953,-20.32226 -20.32227,-20.32226 H 339.96006 a 3.3265372,3.3265372 0 0 0 -2.63672,1.29883 c -0.22207,0.28891 -0.28051,0.38197 -0.1914,0.26758 -1.36281,1.74997 -2.82867,3.39626 -4.43164,4.96679 a 3.3265372,3.3265372 0 0 0 -0.14844,0.15625 c -1.60325,1.78758 -3.3128,3.42796 -5.10938,4.91797 -1.80233,1.49479 -3.68512,2.84157 -5.64843,4.04492 -1.95127,1.19596 -3.99523,2.23941 -6.1211,3.17383 -1.03722,0.45591 -2.27087,0.8496 -3.64648,1.33789 a 3.3265372,3.3265372 0 0 0 -2.21485,3.13477 v 93.67187 53.80664 106.25 h -40.46874 v -106.25 -53.80664 -95.30273 a 3.3265372,3.3265372 0 0 0 -2.05274,-3.07227 c -2.0448,-0.84646 -4.04986,-1.78809 -5.96289,-2.82617 -2.07563,-1.1263 -4.05617,-2.33458 -5.94727,-3.66797 -1.89406,-1.33548 -3.75083,-2.82991 -5.46875,-4.39062 -1.72096,-1.56349 -3.30145,-3.18421 -4.79296,-4.94532 -0.20153,-0.23795 -0.53925,-0.77592 -1.10743,-1.49804 a 3.3265372,3.3265372 0 0 0 -2.61328,-1.26758 z M 72.135844,344.1979 H 262.69053 v 47.1543 H 72.135844 Z m 244.328126,0 h 183.50391 v 47.1543 H 316.46397 Z"
         fill="#ffffff"
         id="path123" /></symbol></defs><g
     inkscape:label="Layer 1"
     inkscape:groupmode="layer"
     id="layer1"><rect
       style="fill:#ffccaa;stroke-width:0.269699"
       id="rect1"
       width="194.10001"
       height="283.73969"
       x="7.4999995"
       y="5.9573607"
       ry="11.643745"
       sodipodi:insensitive="true" /><text
       xml:space="preserve"
       style="font-style:normal;font-variant:normal;font-weight:normal;font-stretch:normal;font-size:11.8783px;font-family:'Cambria Math';-inkscape-font-specification:'Cambria Math, Normal';font-variant-ligatures:normal;font-variant-caps:normal;font-variant-numeric:normal;font-variant-east-asian:normal;text-align:center;letter-spacing:0.264583px;word-spacing:0.264583px;writing-mode:lr-tb;direction:ltr;text-anchor:middle;white-space:pre;inline-size:252.967;display:inline;fill:#800000;fill-opacity:1;stroke-width:0.264583"
       x="93.483498"
       y="58.799999"
       id="text3"
       transform="matrix(1.2317964,0,0,1.145717,-7.5643241,-35.5031)"><tspan
         x="93.483498"
         y="58.799999"
         id="tspan12"><tspan
           dx="0 0 0 0 0 0 0 0 -0.26458192 0.26458228"
           id="tspan11">Birthday Invitation</tspan></tspan></text><text
       xml:space="preserve"
       style="font-style:normal;font-variant:normal;font-weight:normal;font-stretch:normal;font-size:8.46667px;line-height:6.36px;font-family:'Cambria Math';-inkscape-font-specification:'Cambria Math, Normal';font-variant-ligatures:normal;font-variant-caps:normal;font-variant-numeric:normal;font-variant-east-asian:normal;letter-spacing:0.264583px;word-spacing:0.264583px;writing-mode:lr-tb;direction:ltr;white-space:pre;inline-size:76.7605;display:inline;fill:#800000;fill-opacity:1;stroke-width:0.264583"
       x="36"
       y="45"
       id="text9"
       transform="translate(43.762403,-1.139697)"><tspan
         x="36"
         y="45"
         id="tspan18"><tspan
           dx="0 0 0 0 0 0 -0.2645824 0.26458251"
           id="tspan14">you're invited!</tspan></tspan></text><text
       xml:space="preserve"
       transform="matrix(0.26458333,0,0,0.26458333,-53.241927,151.57771)"
       id="text10"
       style="font-style:normal;font-variant:normal;font-weight:normal;font-stretch:normal;font-size:37.3333px;line-height:14.022px;font-family:'Cambria Math';-inkscape-font-specification:'Cambria Math, Normal';font-variant-ligatures:normal;font-variant-caps:normal;font-variant-numeric:normal;font-variant-east-asian:normal;text-align:center;letter-spacing:1px;word-spacing:1px;writing-mode:lr-tb;direction:ltr;white-space:pre;shape-inside:url(#rect10);display:inline;fill:#800000;fill-opacity:1"
       x="434.2677"
       y="0"><tspan
         x="292.79647"
         y="450.51815"
         id="tspan30"><tspan
           dx="0 0 0 0 -0.99999809 0.99999714 0 -1.0000038 1.0000048 0 -0.99999619 0.99999714 0 -1 0.99999714 0 0 0 0 0 0 0 0 -0.99998474 0.99999714 0 0 -1.0000153 0.99999714 0 0 0 0 0 0 0 -0.99998474"
           id="tspan19">join us as we celebrate the birthday 
</tspan></tspan><tspan
         x="595.19987"
         y="464.54016"
         id="tspan31"> 
</tspan><tspan
         x="547.30017"
         y="478.56216"
         id="tspan33"><tspan
           dx="0 0 -0.99999905 1.000001"
           id="tspan32">of anu</tspan></tspan></text><text
       xml:space="preserve"
       transform="matrix(0.26458333,0,0,0.26458333,1.4823377,149.65282)"
       id="text11"
       style="font-style:normal;font-variant:normal;font-weight:normal;font-stretch:normal;font-size:29.3333px;line-height:29.6963px;font-family:'Cambria Math';-inkscape-font-specification:'Cambria Math, Normal';font-variant-ligatures:normal;font-variant-caps:normal;font-variant-numeric:normal;font-variant-east-asian:normal;text-align:center;letter-spacing:1px;word-spacing:1px;writing-mode:lr-tb;direction:ltr;white-space:pre;shape-inside:url(#rect11);shape-padding:1.60352;display:inline;fill:#000000;fill-opacity:1"
       x="0"
       y="0"><tspan
         x="214.75084"
         y="330.74397"
         id="tspan35"><tspan
           dx="0 0 0 0 -0.99999905 0.99999714 -0.99999857 0.99999714 0 0 0 0 0 0 -1.0000086 0.99999714 0 -0.99999619 0.99999714 0 0 0 -1.0000134 0.99999714 0 0 0 -0.99998093"
           style="fill:#800000"
           id="tspan34">date : sunday, 26 july 2026
</tspan></tspan><tspan
         x="235.62582"
         y="360.44026"
         id="tspan37"><tspan
           dx="0 0 0 0 -0.99999905 0.99999714 -0.99999857 1.0000048 0 0 0 -1.0000114 1.0000124 0 -1.0000076 0.99999714 0 0 0 0 0 0 -0.99999523"
           style="fill:#800000"
           id="tspan36">time : 6:30 PM onwards
</tspan></tspan><tspan
         x="209.98132"
         y="390.13655"
         id="tspan39"><tspan
           dx="0 0 0 0 0 -0.99999905 1.0000048 -1.0000062 1.0000048 0 0 0 0 -1.0000114 1.0000124 0 0 0 0 0 -0.99998093 0.99999714 0 0 0 0 -1.0000134"
           style="fill:#800000"
           id="tspan38">venue : green garden party 
</tspan></tspan><tspan
         x="192.5918"
         y="419.83284"
         id="tspan41"><tspan
           style="fill:#800000"
           id="tspan40">
</tspan></tspan><tspan
         x="192.0918"
         y="434.38655"
         id="tspan43"><tspan
           style="fill:#800000"
           id="tspan42">
</tspan></tspan><tspan
         x="192.0918"
         y="464.08285"
         id="tspan46"><tspan
           style="fill:#800000"
           id="tspan45">
</tspan></tspan></text><text
       xml:space="preserve"
       style="font-style:normal;font-variant:normal;font-weight:normal;font-stretch:normal;font-size:10.3443px;line-height:10.4723px;font-family:'Cambria Math';-inkscape-font-specification:'Cambria Math, Normal';font-variant-ligatures:normal;font-variant-caps:normal;font-variant-numeric:normal;font-variant-east-asian:normal;text-align:center;letter-spacing:0.27708px;word-spacing:0.27708px;writing-mode:lr-tb;direction:ltr;text-anchor:middle;fill:#800000;fill-opacity:1;stroke-width:0.27708"
       x="100.9409"
       y="65.630569"
       id="text15"
       transform="scale(1.0472327,0.9548976)"><tspan
         sodipodi:role="line"
         id="tspan15"
         style="font-size:8.86657px;fill:#800000;stroke-width:0.27708"
         x="100.9409"
         y="65.630569">come and enjoy an evening filled with fun</tspan><tspan
         sodipodi:role="line"
         style="font-size:8.86657px;fill:#800000;stroke-width:0.27708"
         x="100.9409"
         y="76.513428"
         id="tspan17">laughter,games,delicious food and cake! </tspan><tspan
         sodipodi:role="line"
         style="fill:#800000;stroke-width:0.27708"
         x="102.49551"
         y="87.396286"
         id="tspan16"> </tspan></text><text
       xml:space="preserve"
       transform="scale(0.26458333)"
       id="text17"
       style="font-style:normal;font-variant:normal;font-weight:normal;font-stretch:normal;font-size:29.3333px;line-height:29.6963px;font-family:'Cambria Math';-inkscape-font-specification:'Cambria Math, Normal';font-variant-ligatures:normal;font-variant-caps:normal;font-variant-numeric:normal;font-variant-east-asian:normal;letter-spacing:1px;word-spacing:1px;writing-mode:lr-tb;direction:ltr;white-space:pre;shape-inside:url(#rect17);display:inline;fill:#000000;fill-opacity:1" /><text
       xml:space="preserve"
       style="font-style:normal;font-variant:normal;font-weight:normal;font-stretch:normal;font-size:9.87777px;line-height:14.5454px;font-family:Carlito;-inkscape-font-specification:'Carlito, Normal';font-variant-ligatures:normal;font-variant-caps:normal;font-variant-numeric:normal;font-variant-east-asian:normal;letter-spacing:0.264583px;word-spacing:0.264583px;writing-mode:lr-tb;direction:ltr;white-space:pre;inline-size:0;opacity:0.545;fill:#c00925;fill-opacity:0.954315;stroke:#000000;stroke-width:1.565;stroke-dasharray:none;stroke-opacity:1"
       x="40.048668"
       y="99.098526"
       id="text44"
       transform="matrix(1.7534915,0.01192555,-0.01379294,2.0280657,-28.660102,-95.008722)"><tspan
         sodipodi:role="line"
         x="0"
         y="0"
         id="tspan54"><tspan
           id="tspan44"
           style="letter-spacing:0.264583px;fill:#c00925;fill-opacity:0.954315;stroke-width:1.565"
           x="40.048668"
           y="99.098526" /></tspan></text><text
       xml:space="preserve"
       style="font-style:normal;font-variant:normal;font-weight:normal;font-stretch:normal;font-size:17.3241px;line-height:25.5105px;font-family:Carlito;-inkscape-font-specification:'Carlito, Normal';font-variant-ligatures:normal;font-variant-caps:normal;font-variant-numeric:normal;font-variant-east-asian:normal;letter-spacing:0.464039px;word-spacing:0.464039px;writing-mode:lr-tb;direction:ltr;white-space:pre;inline-size:131.27;display:inline;opacity:0.545;fill:url(#linearGradient77);fill-opacity:1;stroke:#000000;stroke-width:2.74478;stroke-dasharray:none;stroke-opacity:1"
       x="51.830376"
       y="87.640656"
       id="text58"
       transform="matrix(1.4665438,0,0,1.2459622,-22.649812,-6.109055)"><tspan
         x="51.830376"
         y="87.640656"
         id="tspan48"><tspan
           dx="0 0 0 0 0 -0.46403724"
           id="tspan47">Happy 
</tspan></tspan><tspan
         x="51.830376"
         y="113.15116"
         id="tspan50"><tspan
           dx="0 0 0 0 0.46403965"
           id="tspan49">    Birthday</tspan></tspan></text><use
       xlink:href="#sjjb-food.svg:pizza"
       width="538.57141"
       height="526.29633"
       style="fill:#000000;stroke:none"
       id="use1"
       transform="matrix(0.05615562,0,0,0.04673689,13.660964,106.43063)" /><use
       xlink:href="#sjjb-food.svg:ice_cream"
       width="438.79324"
       height="515.78387"
       style="fill:#000000;stroke:none"
       id="use1-4"
       transform="matrix(0.04702485,0,0,0.03299618,175.09257,85.754458)" /><use
       xlink:href="#sjjb-food.svg:fastfood2"
       width="536.62494"
       height="451.6875"
       style="fill:#000000;stroke:none"
       id="use1-7"
       transform="matrix(0.03438937,0.03255427,-0.02053482,0.02169238,176.5028,209.19358)"
       inkscape:transform-center-x="14.871151"
       inkscape:transform-center-y="-18.708867" /><use
       xlink:href="#sjjb-shopping.svg:confectionery"
       width="517.68536"
       height="204.0986"
       style="fill:#000000;stroke:none"
       id="use1-6"
       transform="matrix(0.03692569,0.02580262,-0.03417393,0.04314851,27.177304,217.863)" /><use
       xlink:href="#sjjb-shopping.svg:music"
       width="507.77148"
       height="480.88791"
       style="fill:#000000;stroke:none"
       id="use1-3"
       transform="matrix(0.05390522,0,0,0.04811281,11.499246,166.64551)" /><path
       sodipodi:type="spiral"
       style="fill:url(#meshgradient77);fill-opacity:1;fill-rule:evenodd;stroke:#000000;stroke-width:0.264583"
       id="path73"
       sodipodi:cx="85.389183"
       sodipodi:cy="165.98123"
       sodipodi:expansion="1"
       sodipodi:revolution="3"
       sodipodi:radius="29.041555"
       sodipodi:argument="-17.668468"
       sodipodi:t0="0.066375695"
       d="m 83.926511,167.23679 c -2.048898,-0.38799 -2.216332,-3.07812 -1.369225,-4.55458 1.624684,-2.83176 5.55299,-2.8978 7.967278,-1.10921 3.644559,2.70002 3.608719,8.07233 0.849185,11.37997 -3.735204,4.47709 -10.606641,4.33145 -14.792656,0.58916 -5.319268,-4.75541 -5.060171,-13.1478 -0.329144,-18.20534 5.768538,-6.16666 15.692729,-5.7923 21.618033,-0.0691 7.017158,6.77778 6.526528,18.23997 -0.190897,25.03073 -7.784659,7.86963 -20.788721,7.26216 -28.44341,-0.45092 -8.723469,-8.79001 -7.998753,-23.33854 0.710938,-31.8561 9.794307,-9.57825 25.889122,-8.73604 35.268787,0.97096 10.43373,10.79785 9.47385,28.44028 -1.23098,38.68147 -2.22083,2.12465 -4.784887,3.88492 -7.561794,5.20144"
       transform="rotate(-42.086513,121.49055,141.54033)" /><use
       xlink:href="#sjjb-shopping.svg:symbol165"
       width="576.44501"
       height="577.45154"
       style="fill:#000000;stroke:none"
       id="use1-68"
       transform="matrix(0.03511166,0.02520115,-0.0205821,0.02867614,177.63769,149.48228)"
       inkscape:transform-center-x="20.148011"
       inkscape:transform-center-y="-15.350865" /></g><script
     id="mesh_polyfill"
     type="text/javascript">
!function(){const t=&quot;http://www.w3.org/2000/svg&quot;,e=&quot;http://www.w3.org/1999/xlink&quot;,s=&quot;http://www.w3.org/1999/xhtml&quot;,r=2;if(document.createElementNS(t,&quot;meshgradient&quot;).x)return;const n=(t,e,s,r)=&gt;{let n=new x(.5*(e.x+s.x),.5*(e.y+s.y)),o=new x(.5*(t.x+e.x),.5*(t.y+e.y)),i=new x(.5*(s.x+r.x),.5*(s.y+r.y)),a=new x(.5*(n.x+o.x),.5*(n.y+o.y)),h=new x(.5*(n.x+i.x),.5*(n.y+i.y)),l=new x(.5*(a.x+h.x),.5*(a.y+h.y));return[[t,o,a,l],[l,h,i,r]]},o=t=&gt;{let e=t[0].distSquared(t[1]),s=t[2].distSquared(t[3]),r=.25*t[0].distSquared(t[2]),n=.25*t[1].distSquared(t[3]),o=e&gt;s?e:s,i=r&gt;n?r:n;return 18*(o&gt;i?o:i)},i=(t,e)=&gt;Math.sqrt(t.distSquared(e)),a=(t,e)=&gt;t.scale(2/3).add(e.scale(1/3)),h=t=&gt;{let e,s,r,n,o,i,a,h=new g;return t.match(/(\w+\(\s*[^)]+\))+/g).forEach(t=&gt;{let l=t.match(/[\w.-]+/g),d=l.shift();switch(d){case&quot;translate&quot;:2===l.length?e=new g(1,0,0,1,l[0],l[1]):(console.error(&quot;mesh.js: translate does not have 2 arguments!&quot;),e=new g(1,0,0,1,0,0)),h=h.append(e);break;case&quot;scale&quot;:1===l.length?s=new g(l[0],0,0,l[0],0,0):2===l.length?s=new g(l[0],0,0,l[1],0,0):(console.error(&quot;mesh.js: scale does not have 1 or 2 arguments!&quot;),s=new g(1,0,0,1,0,0)),h=h.append(s);break;case&quot;rotate&quot;:if(3===l.length&amp;&amp;(e=new g(1,0,0,1,l[1],l[2]),h=h.append(e)),l[0]){r=l[0]*Math.PI/180;let t=Math.cos(r),e=Math.sin(r);Math.abs(t)&lt;1e-16&amp;&amp;(t=0),Math.abs(e)&lt;1e-16&amp;&amp;(e=0),a=new g(t,e,-e,t,0,0),h=h.append(a)}else console.error(&quot;math.js: No argument to rotate transform!&quot;);3===l.length&amp;&amp;(e=new g(1,0,0,1,-l[1],-l[2]),h=h.append(e));break;case&quot;skewX&quot;:l[0]?(r=l[0]*Math.PI/180,n=Math.tan(r),o=new g(1,0,n,1,0,0),h=h.append(o)):console.error(&quot;math.js: No argument to skewX transform!&quot;);break;case&quot;skewY&quot;:l[0]?(r=l[0]*Math.PI/180,n=Math.tan(r),i=new g(1,n,0,1,0,0),h=h.append(i)):console.error(&quot;math.js: No argument to skewY transform!&quot;);break;case&quot;matrix&quot;:6===l.length?h=h.append(new g(...l)):console.error(&quot;math.js: Incorrect number of arguments for matrix!&quot;);break;default:console.error(&quot;mesh.js: Unhandled transform type: &quot;+d)}}),h},l=t=&gt;{let e=[],s=t.split(/[ ,]+/);for(let t=0,r=s.length-1;t&lt;r;t+=2)e.push(new x(parseFloat(s[t]),parseFloat(s[t+1])));return e},d=(t,e)=&gt;{for(let s in e)t.setAttribute(s,e[s])},c=(t,e,s,r,n)=&gt;{let o,i,a=[0,0,0,0];for(let h=0;h&lt;3;++h)e[h]&lt;t[h]&amp;&amp;e[h]&lt;s[h]||t[h]&lt;e[h]&amp;&amp;s[h]&lt;e[h]?a[h]=0:(a[h]=.5*((e[h]-t[h])/r+(s[h]-e[h])/n),o=Math.abs(3*(e[h]-t[h])/r),i=Math.abs(3*(s[h]-e[h])/n),a[h]&gt;o?a[h]=o:a[h]&gt;i&amp;&amp;(a[h]=i));return a},u=[[1,0,0,0,0,0,0,0,0,0,0,0,0,0,0,0],[0,0,0,0,1,0,0,0,0,0,0,0,0,0,0,0],[-3,3,0,0,-2,-1,0,0,0,0,0,0,0,0,0,0],[2,-2,0,0,1,1,0,0,0,0,0,0,0,0,0,0],[0,0,0,0,0,0,0,0,1,0,0,0,0,0,0,0],[0,0,0,0,0,0,0,0,0,0,0,0,1,0,0,0],[0,0,0,0,0,0,0,0,-3,3,0,0,-2,-1,0,0],[0,0,0,0,0,0,0,0,2,-2,0,0,1,1,0,0],[-3,0,3,0,0,0,0,0,-2,0,-1,0,0,0,0,0],[0,0,0,0,-3,0,3,0,0,0,0,0,-2,0,-1,0],[9,-9,-9,9,6,3,-6,-3,6,-6,3,-3,4,2,2,1],[-6,6,6,-6,-3,-3,3,3,-4,4,-2,2,-2,-2,-1,-1],[2,0,-2,0,0,0,0,0,1,0,1,0,0,0,0,0],[0,0,0,0,2,0,-2,0,0,0,0,0,1,0,1,0],[-6,6,6,-6,-4,-2,4,2,-3,3,-3,3,-2,-1,-2,-1],[4,-4,-4,4,2,2,-2,-2,2,-2,2,-2,1,1,1,1]],f=t=&gt;{let e=[];for(let s=0;s&lt;16;++s){e[s]=0;for(let r=0;r&lt;16;++r)e[s]+=u[s][r]*t[r]}return e},p=(t,e,s)=&gt;{const r=e*e,n=s*s,o=e*e*e,i=s*s*s;return t[0]+t[1]*e+t[2]*r+t[3]*o+t[4]*s+t[5]*s*e+t[6]*s*r+t[7]*s*o+t[8]*n+t[9]*n*e+t[10]*n*r+t[11]*n*o+t[12]*i+t[13]*i*e+t[14]*i*r+t[15]*i*o},y=t=&gt;{let e=[],s=[],r=[];for(let s=0;s&lt;4;++s)e[s]=[],e[s][0]=n(t[0][s],t[1][s],t[2][s],t[3][s]),e[s][1]=[],e[s][1].push(...n(...e[s][0][0])),e[s][1].push(...n(...e[s][0][1])),e[s][2]=[],e[s][2].push(...n(...e[s][1][0])),e[s][2].push(...n(...e[s][1][1])),e[s][2].push(...n(...e[s][1][2])),e[s][2].push(...n(...e[s][1][3]));for(let t=0;t&lt;8;++t){s[t]=[];for(let r=0;r&lt;4;++r)s[t][r]=[],s[t][r][0]=n(e[0][2][t][r],e[1][2][t][r],e[2][2][t][r],e[3][2][t][r]),s[t][r][1]=[],s[t][r][1].push(...n(...s[t][r][0][0])),s[t][r][1].push(...n(...s[t][r][0][1])),s[t][r][2]=[],s[t][r][2].push(...n(...s[t][r][1][0])),s[t][r][2].push(...n(...s[t][r][1][1])),s[t][r][2].push(...n(...s[t][r][1][2])),s[t][r][2].push(...n(...s[t][r][1][3]))}for(let t=0;t&lt;8;++t){r[t]=[];for(let e=0;e&lt;8;++e)r[t][e]=[],r[t][e][0]=s[t][0][2][e],r[t][e][1]=s[t][1][2][e],r[t][e][2]=s[t][2][2][e],r[t][e][3]=s[t][3][2][e]}return r};class x{constructor(t,e){this.x=t||0,this.y=e||0}toString(){return`(x=${this.x}, y=${this.y})`}clone(){return new x(this.x,this.y)}add(t){return new x(this.x+t.x,this.y+t.y)}scale(t){return void 0===t.x?new x(this.x*t,this.y*t):new x(this.x*t.x,this.y*t.y)}distSquared(t){let e=this.x-t.x,s=this.y-t.y;return e*e+s*s}transform(t){let e=this.x*t.a+this.y*t.c+t.e,s=this.x*t.b+this.y*t.d+t.f;return new x(e,s)}}class g{constructor(t,e,s,r,n,o){void 0===t?(this.a=1,this.b=0,this.c=0,this.d=1,this.e=0,this.f=0):(this.a=t,this.b=e,this.c=s,this.d=r,this.e=n,this.f=o)}toString(){return`affine: ${this.a} ${this.c} ${this.e} \n       ${this.b} ${this.d} ${this.f}`}append(t){t instanceof g||console.error(&quot;mesh.js: argument to Affine.append is not affine!&quot;);let e=this.a*t.a+this.c*t.b,s=this.b*t.a+this.d*t.b,r=this.a*t.c+this.c*t.d,n=this.b*t.c+this.d*t.d,o=this.a*t.e+this.c*t.f+this.e,i=this.b*t.e+this.d*t.f+this.f;return new g(e,s,r,n,o,i)}}class w{constructor(t,e){this.nodes=t,this.colors=e}paintCurve(t,e){if(o(this.nodes)&gt;r){const s=n(...this.nodes);let r=[[],[]],o=[[],[]];for(let t=0;t&lt;4;++t)r[0][t]=this.colors[0][t],r[1][t]=(this.colors[0][t]+this.colors[1][t])/2,o[0][t]=r[1][t],o[1][t]=this.colors[1][t];let i=new w(s[0],r),a=new w(s[1],o);i.paintCurve(t,e),a.paintCurve(t,e)}else{let s=Math.round(this.nodes[0].x);if(s&gt;=0&amp;&amp;s&lt;e){let r=4*(~~this.nodes[0].y*e+s);t[r]=Math.round(this.colors[0][0]),t[r+1]=Math.round(this.colors[0][1]),t[r+2]=Math.round(this.colors[0][2]),t[r+3]=Math.round(this.colors[0][3])}}}}class m{constructor(t,e){this.nodes=t,this.colors=e}split(){let t=[[],[],[],[]],e=[[],[],[],[]],s=[[[],[]],[[],[]]],r=[[[],[]],[[],[]]];for(let s=0;s&lt;4;++s){const r=n(this.nodes[0][s],this.nodes[1][s],this.nodes[2][s],this.nodes[3][s]);t[0][s]=r[0][0],t[1][s]=r[0][1],t[2][s]=r[0][2],t[3][s]=r[0][3],e[0][s]=r[1][0],e[1][s]=r[1][1],e[2][s]=r[1][2],e[3][s]=r[1][3]}for(let t=0;t&lt;4;++t)s[0][0][t]=this.colors[0][0][t],s[0][1][t]=this.colors[0][1][t],s[1][0][t]=(this.colors[0][0][t]+this.colors[1][0][t])/2,s[1][1][t]=(this.colors[0][1][t]+this.colors[1][1][t])/2,r[0][0][t]=s[1][0][t],r[0][1][t]=s[1][1][t],r[1][0][t]=this.colors[1][0][t],r[1][1][t]=this.colors[1][1][t];return[new m(t,s),new m(e,r)]}paint(t,e){let s,n=!1;for(let t=0;t&lt;4;++t)if((s=o([this.nodes[0][t],this.nodes[1][t],this.nodes[2][t],this.nodes[3][t]]))&gt;r){n=!0;break}if(n){let s=this.split();s[0].paint(t,e),s[1].paint(t,e)}else{new w([...this.nodes[0]],[...this.colors[0]]).paintCurve(t,e)}}}class b{constructor(t){this.readMesh(t),this.type=t.getAttribute(&quot;type&quot;)||&quot;bilinear&quot;}readMesh(t){let e=[[]],s=[[]],r=Number(t.getAttribute(&quot;x&quot;)),n=Number(t.getAttribute(&quot;y&quot;));e[0][0]=new x(r,n);let o=t.children;for(let t=0,r=o.length;t&lt;r;++t){e[3*t+1]=[],e[3*t+2]=[],e[3*t+3]=[],s[t+1]=[];let r=o[t].children;for(let n=0,o=r.length;n&lt;o;++n){let o=r[n].children;for(let r=0,i=o.length;r&lt;i;++r){let i=r;0!==t&amp;&amp;++i;let h,d=o[r].getAttribute(&quot;path&quot;),c=&quot;l&quot;;null!=d&amp;&amp;(c=(h=d.match(/\s*([lLcC])\s*(.*)/))[1]);let u=l(h[2]);switch(c){case&quot;l&quot;:0===i?(e[3*t][3*n+3]=u[0].add(e[3*t][3*n]),e[3*t][3*n+1]=a(e[3*t][3*n],e[3*t][3*n+3]),e[3*t][3*n+2]=a(e[3*t][3*n+3],e[3*t][3*n])):1===i?(e[3*t+3][3*n+3]=u[0].add(e[3*t][3*n+3]),e[3*t+1][3*n+3]=a(e[3*t][3*n+3],e[3*t+3][3*n+3]),e[3*t+2][3*n+3]=a(e[3*t+3][3*n+3],e[3*t][3*n+3])):2===i?(0===n&amp;&amp;(e[3*t+3][3*n+0]=u[0].add(e[3*t+3][3*n+3])),e[3*t+3][3*n+1]=a(e[3*t+3][3*n],e[3*t+3][3*n+3]),e[3*t+3][3*n+2]=a(e[3*t+3][3*n+3],e[3*t+3][3*n])):(e[3*t+1][3*n]=a(e[3*t][3*n],e[3*t+3][3*n]),e[3*t+2][3*n]=a(e[3*t+3][3*n],e[3*t][3*n]));break;case&quot;L&quot;:0===i?(e[3*t][3*n+3]=u[0],e[3*t][3*n+1]=a(e[3*t][3*n],e[3*t][3*n+3]),e[3*t][3*n+2]=a(e[3*t][3*n+3],e[3*t][3*n])):1===i?(e[3*t+3][3*n+3]=u[0],e[3*t+1][3*n+3]=a(e[3*t][3*n+3],e[3*t+3][3*n+3]),e[3*t+2][3*n+3]=a(e[3*t+3][3*n+3],e[3*t][3*n+3])):2===i?(0===n&amp;&amp;(e[3*t+3][3*n+0]=u[0]),e[3*t+3][3*n+1]=a(e[3*t+3][3*n],e[3*t+3][3*n+3]),e[3*t+3][3*n+2]=a(e[3*t+3][3*n+3],e[3*t+3][3*n])):(e[3*t+1][3*n]=a(e[3*t][3*n],e[3*t+3][3*n]),e[3*t+2][3*n]=a(e[3*t+3][3*n],e[3*t][3*n]));break;case&quot;c&quot;:0===i?(e[3*t][3*n+1]=u[0].add(e[3*t][3*n]),e[3*t][3*n+2]=u[1].add(e[3*t][3*n]),e[3*t][3*n+3]=u[2].add(e[3*t][3*n])):1===i?(e[3*t+1][3*n+3]=u[0].add(e[3*t][3*n+3]),e[3*t+2][3*n+3]=u[1].add(e[3*t][3*n+3]),e[3*t+3][3*n+3]=u[2].add(e[3*t][3*n+3])):2===i?(e[3*t+3][3*n+2]=u[0].add(e[3*t+3][3*n+3]),e[3*t+3][3*n+1]=u[1].add(e[3*t+3][3*n+3]),0===n&amp;&amp;(e[3*t+3][3*n+0]=u[2].add(e[3*t+3][3*n+3]))):(e[3*t+2][3*n]=u[0].add(e[3*t+3][3*n]),e[3*t+1][3*n]=u[1].add(e[3*t+3][3*n]));break;case&quot;C&quot;:0===i?(e[3*t][3*n+1]=u[0],e[3*t][3*n+2]=u[1],e[3*t][3*n+3]=u[2]):1===i?(e[3*t+1][3*n+3]=u[0],e[3*t+2][3*n+3]=u[1],e[3*t+3][3*n+3]=u[2]):2===i?(e[3*t+3][3*n+2]=u[0],e[3*t+3][3*n+1]=u[1],0===n&amp;&amp;(e[3*t+3][3*n+0]=u[2])):(e[3*t+2][3*n]=u[0],e[3*t+1][3*n]=u[1]);break;default:console.error(&quot;mesh.js: &quot;+c+&quot; invalid path type.&quot;)}if(0===t&amp;&amp;0===n||r&gt;0){let e=window.getComputedStyle(o[r]).stopColor.match(/^rgb\s*\(\s*(\d+)\s*,\s*(\d+)\s*,\s*(\d+)\s*\)$/i),a=window.getComputedStyle(o[r]).stopOpacity,h=255;a&amp;&amp;(h=Math.floor(255*a)),e&amp;&amp;(0===i?(s[t][n]=[],s[t][n][0]=Math.floor(e[1]),s[t][n][1]=Math.floor(e[2]),s[t][n][2]=Math.floor(e[3]),s[t][n][3]=h):1===i?(s[t][n+1]=[],s[t][n+1][0]=Math.floor(e[1]),s[t][n+1][1]=Math.floor(e[2]),s[t][n+1][2]=Math.floor(e[3]),s[t][n+1][3]=h):2===i?(s[t+1][n+1]=[],s[t+1][n+1][0]=Math.floor(e[1]),s[t+1][n+1][1]=Math.floor(e[2]),s[t+1][n+1][2]=Math.floor(e[3]),s[t+1][n+1][3]=h):3===i&amp;&amp;(s[t+1][n]=[],s[t+1][n][0]=Math.floor(e[1]),s[t+1][n][1]=Math.floor(e[2]),s[t+1][n][2]=Math.floor(e[3]),s[t+1][n][3]=h))}}e[3*t+1][3*n+1]=new x,e[3*t+1][3*n+2]=new x,e[3*t+2][3*n+1]=new x,e[3*t+2][3*n+2]=new x,e[3*t+1][3*n+1].x=(-4*e[3*t][3*n].x+6*(e[3*t][3*n+1].x+e[3*t+1][3*n].x)+-2*(e[3*t][3*n+3].x+e[3*t+3][3*n].x)+3*(e[3*t+3][3*n+1].x+e[3*t+1][3*n+3].x)+-1*e[3*t+3][3*n+3].x)/9,e[3*t+1][3*n+2].x=(-4*e[3*t][3*n+3].x+6*(e[3*t][3*n+2].x+e[3*t+1][3*n+3].x)+-2*(e[3*t][3*n].x+e[3*t+3][3*n+3].x)+3*(e[3*t+3][3*n+2].x+e[3*t+1][3*n].x)+-1*e[3*t+3][3*n].x)/9,e[3*t+2][3*n+1].x=(-4*e[3*t+3][3*n].x+6*(e[3*t+3][3*n+1].x+e[3*t+2][3*n].x)+-2*(e[3*t+3][3*n+3].x+e[3*t][3*n].x)+3*(e[3*t][3*n+1].x+e[3*t+2][3*n+3].x)+-1*e[3*t][3*n+3].x)/9,e[3*t+2][3*n+2].x=(-4*e[3*t+3][3*n+3].x+6*(e[3*t+3][3*n+2].x+e[3*t+2][3*n+3].x)+-2*(e[3*t+3][3*n].x+e[3*t][3*n+3].x)+3*(e[3*t][3*n+2].x+e[3*t+2][3*n].x)+-1*e[3*t][3*n].x)/9,e[3*t+1][3*n+1].y=(-4*e[3*t][3*n].y+6*(e[3*t][3*n+1].y+e[3*t+1][3*n].y)+-2*(e[3*t][3*n+3].y+e[3*t+3][3*n].y)+3*(e[3*t+3][3*n+1].y+e[3*t+1][3*n+3].y)+-1*e[3*t+3][3*n+3].y)/9,e[3*t+1][3*n+2].y=(-4*e[3*t][3*n+3].y+6*(e[3*t][3*n+2].y+e[3*t+1][3*n+3].y)+-2*(e[3*t][3*n].y+e[3*t+3][3*n+3].y)+3*(e[3*t+3][3*n+2].y+e[3*t+1][3*n].y)+-1*e[3*t+3][3*n].y)/9,e[3*t+2][3*n+1].y=(-4*e[3*t+3][3*n].y+6*(e[3*t+3][3*n+1].y+e[3*t+2][3*n].y)+-2*(e[3*t+3][3*n+3].y+e[3*t][3*n].y)+3*(e[3*t][3*n+1].y+e[3*t+2][3*n+3].y)+-1*e[3*t][3*n+3].y)/9,e[3*t+2][3*n+2].y=(-4*e[3*t+3][3*n+3].y+6*(e[3*t+3][3*n+2].y+e[3*t+2][3*n+3].y)+-2*(e[3*t+3][3*n].y+e[3*t][3*n+3].y)+3*(e[3*t][3*n+2].y+e[3*t+2][3*n].y)+-1*e[3*t][3*n].y)/9}}this.nodes=e,this.colors=s}paintMesh(t,e){let s=(this.nodes.length-1)/3,r=(this.nodes[0].length-1)/3;if(&quot;bilinear&quot;===this.type||s&lt;2||r&lt;2){let n;for(let o=0;o&lt;s;++o)for(let s=0;s&lt;r;++s){let r=[];for(let t=3*o,e=3*o+4;t&lt;e;++t)r.push(this.nodes[t].slice(3*s,3*s+4));let i=[];i.push(this.colors[o].slice(s,s+2)),i.push(this.colors[o+1].slice(s,s+2)),(n=new m(r,i)).paint(t,e)}}else{let n,o,a,h,l,d,u;const x=s,g=r;s++,r++;let w=new Array(s);for(let t=0;t&lt;s;++t){w[t]=new Array(r);for(let e=0;e&lt;r;++e)w[t][e]=[],w[t][e][0]=this.nodes[3*t][3*e],w[t][e][1]=this.colors[t][e]}for(let t=0;t&lt;s;++t)for(let e=0;e&lt;r;++e)0!==t&amp;&amp;t!==x&amp;&amp;(n=i(w[t-1][e][0],w[t][e][0]),o=i(w[t+1][e][0],w[t][e][0]),w[t][e][2]=c(w[t-1][e][1],w[t][e][1],w[t+1][e][1],n,o)),0!==e&amp;&amp;e!==g&amp;&amp;(n=i(w[t][e-1][0],w[t][e][0]),o=i(w[t][e+1][0],w[t][e][0]),w[t][e][3]=c(w[t][e-1][1],w[t][e][1],w[t][e+1][1],n,o));for(let t=0;t&lt;r;++t){w[0][t][2]=[],w[x][t][2]=[];for(let e=0;e&lt;4;++e)n=i(w[1][t][0],w[0][t][0]),o=i(w[x][t][0],w[x-1][t][0]),w[0][t][2][e]=n&gt;0?2*(w[1][t][1][e]-w[0][t][1][e])/n-w[1][t][2][e]:0,w[x][t][2][e]=o&gt;0?2*(w[x][t][1][e]-w[x-1][t][1][e])/o-w[x-1][t][2][e]:0}for(let t=0;t&lt;s;++t){w[t][0][3]=[],w[t][g][3]=[];for(let e=0;e&lt;4;++e)n=i(w[t][1][0],w[t][0][0]),o=i(w[t][g][0],w[t][g-1][0]),w[t][0][3][e]=n&gt;0?2*(w[t][1][1][e]-w[t][0][1][e])/n-w[t][1][3][e]:0,w[t][g][3][e]=o&gt;0?2*(w[t][g][1][e]-w[t][g-1][1][e])/o-w[t][g-1][3][e]:0}for(let s=0;s&lt;x;++s)for(let r=0;r&lt;g;++r){let n=i(w[s][r][0],w[s+1][r][0]),o=i(w[s][r+1][0],w[s+1][r+1][0]),c=i(w[s][r][0],w[s][r+1][0]),x=i(w[s+1][r][0],w[s+1][r+1][0]),g=[[],[],[],[]];for(let t=0;t&lt;4;++t){(d=[])[0]=w[s][r][1][t],d[1]=w[s+1][r][1][t],d[2]=w[s][r+1][1][t],d[3]=w[s+1][r+1][1][t],d[4]=w[s][r][2][t]*n,d[5]=w[s+1][r][2][t]*n,d[6]=w[s][r+1][2][t]*o,d[7]=w[s+1][r+1][2][t]*o,d[8]=w[s][r][3][t]*c,d[9]=w[s+1][r][3][t]*x,d[10]=w[s][r+1][3][t]*c,d[11]=w[s+1][r+1][3][t]*x,d[12]=0,d[13]=0,d[14]=0,d[15]=0,u=f(d);for(let e=0;e&lt;9;++e){g[t][e]=[];for(let s=0;s&lt;9;++s)g[t][e][s]=p(u,e/8,s/8),g[t][e][s]&gt;255?g[t][e][s]=255:g[t][e][s]&lt;0&amp;&amp;(g[t][e][s]=0)}}h=[];for(let t=3*s,e=3*s+4;t&lt;e;++t)h.push(this.nodes[t].slice(3*r,3*r+4));l=y(h);for(let s=0;s&lt;8;++s)for(let r=0;r&lt;8;++r)(a=new m(l[s][r],[[[g[0][s][r],g[1][s][r],g[2][s][r],g[3][s][r]],[g[0][s][r+1],g[1][s][r+1],g[2][s][r+1],g[3][s][r+1]]],[[g[0][s+1][r],g[1][s+1][r],g[2][s+1][r],g[3][s+1][r]],[g[0][s+1][r+1],g[1][s+1][r+1],g[2][s+1][r+1],g[3][s+1][r+1]]]])).paint(t,e)}}}transform(t){if(t instanceof x)for(let e=0,s=this.nodes.length;e&lt;s;++e)for(let s=0,r=this.nodes[0].length;s&lt;r;++s)this.nodes[e][s]=this.nodes[e][s].add(t);else if(t instanceof g)for(let e=0,s=this.nodes.length;e&lt;s;++e)for(let s=0,r=this.nodes[0].length;s&lt;r;++s)this.nodes[e][s]=this.nodes[e][s].transform(t)}scale(t){for(let e=0,s=this.nodes.length;e&lt;s;++e)for(let s=0,r=this.nodes[0].length;s&lt;r;++s)this.nodes[e][s]=this.nodes[e][s].scale(t)}}document.querySelectorAll(&quot;rect,circle,ellipse,path,text&quot;).forEach((r,n)=&gt;{let o=r.getAttribute(&quot;id&quot;);o||(o=&quot;patchjs_shape&quot;+n,r.setAttribute(&quot;id&quot;,o));const i=r.style.fill.match(/^url\(\s*&quot;?\s*#([^\s&quot;]+)&quot;?\s*\)/),a=r.style.stroke.match(/^url\(\s*&quot;?\s*#([^\s&quot;]+)&quot;?\s*\)/);if(i&amp;&amp;i[1]){const a=document.getElementById(i[1]);if(a&amp;&amp;&quot;meshgradient&quot;===a.nodeName){const i=r.getBBox();let l=document.createElementNS(s,&quot;canvas&quot;);d(l,{width:i.width,height:i.height});const c=l.getContext(&quot;2d&quot;);let u=c.createImageData(i.width,i.height);const f=new b(a);&quot;objectBoundingBox&quot;===a.getAttribute(&quot;gradientUnits&quot;)&amp;&amp;f.scale(new x(i.width,i.height));const p=a.getAttribute(&quot;gradientTransform&quot;);null!=p&amp;&amp;f.transform(h(p)),&quot;userSpaceOnUse&quot;===a.getAttribute(&quot;gradientUnits&quot;)&amp;&amp;f.transform(new x(-i.x,-i.y)),f.paintMesh(u.data,l.width),c.putImageData(u,0,0);const y=document.createElementNS(t,&quot;image&quot;);d(y,{width:i.width,height:i.height,x:i.x,y:i.y});let g=l.toDataURL();y.setAttributeNS(e,&quot;xlink:href&quot;,g),r.parentNode.insertBefore(y,r),r.style.fill=&quot;none&quot;;const w=document.createElementNS(t,&quot;use&quot;);w.setAttributeNS(e,&quot;xlink:href&quot;,&quot;#&quot;+o);const m=&quot;patchjs_clip&quot;+n,M=document.createElementNS(t,&quot;clipPath&quot;);M.setAttribute(&quot;id&quot;,m),M.appendChild(w),r.parentElement.insertBefore(M,r),y.setAttribute(&quot;clip-path&quot;,&quot;url(#&quot;+m+&quot;)&quot;),u=null,l=null,g=null}}if(a&amp;&amp;a[1]){const o=document.getElementById(a[1]);if(o&amp;&amp;&quot;meshgradient&quot;===o.nodeName){const i=parseFloat(r.style.strokeWidth.slice(0,-2))*(parseFloat(r.style.strokeMiterlimit)||parseFloat(r.getAttribute(&quot;stroke-miterlimit&quot;))||1),a=r.getBBox(),l=Math.trunc(a.width+i),c=Math.trunc(a.height+i),u=Math.trunc(a.x-i/2),f=Math.trunc(a.y-i/2);let p=document.createElementNS(s,&quot;canvas&quot;);d(p,{width:l,height:c});const y=p.getContext(&quot;2d&quot;);let g=y.createImageData(l,c);const w=new b(o);&quot;objectBoundingBox&quot;===o.getAttribute(&quot;gradientUnits&quot;)&amp;&amp;w.scale(new x(l,c));const m=o.getAttribute(&quot;gradientTransform&quot;);null!=m&amp;&amp;w.transform(h(m)),&quot;userSpaceOnUse&quot;===o.getAttribute(&quot;gradientUnits&quot;)&amp;&amp;w.transform(new x(-u,-f)),w.paintMesh(g.data,p.width),y.putImageData(g,0,0);const M=document.createElementNS(t,&quot;image&quot;);d(M,{width:l,height:c,x:0,y:0});let S=p.toDataURL();M.setAttributeNS(e,&quot;xlink:href&quot;,S);const k=&quot;pattern_clip&quot;+n,A=document.createElementNS(t,&quot;pattern&quot;);d(A,{id:k,patternUnits:&quot;userSpaceOnUse&quot;,width:l,height:c,x:u,y:f}),A.appendChild(M),o.parentNode.appendChild(A),r.style.stroke=&quot;url(#&quot;+k+&quot;)&quot;,g=null,p=null,S=null}}})}();
</script></svg>
